#Comment line ignore any data following # character 
#Hierarchical Translation and Rotation (.htr) file 
[Header]	
#Header keywords are followed by a single value 
FileType HTR		#Single word string
DataType HTRS		#Translation followed by rotation and scale data
FileVersion 1		#integer
NumSegments 64		#integer
NumFrames 3		#integer
DataFrameRate 30		#integer, data frame rate in this file
EulerRotationOrder ZYX
CalibrationUnits mm
RotationUnits Degrees
GlobalAxisofGravity Y
BoneLengthAxis Y
ScaleFactor 1.00
[SegmentNames&Hierarchy]
#CHILD	PARENT
Pinger_Root GLOBAL
Pelvis Pinger_Root
L_Hip Pelvis
R_Hip Pelvis
Rear_Leg01 Pelvis
Spine1 Pelvis
L_Leg01 L_Hip
L_Leg02 L_Leg01
L_Leg03 L_Leg02
L_Foot L_Leg03
L_Toe1_01 L_Foot
L_Toe2_01 L_Foot
L_Toe3_01 L_Foot
planeAlignerLeft L_Foot
L_Toe1_02 L_Toe1_01
L_Toe1_03 L_Toe1_02
L_Toe2_02 L_Toe2_01
L_Toe2_03 L_Toe2_02
L_Toe3_02 L_Toe3_01
L_Toe3_03 L_Toe3_02
planeLockWeightLeft planeAlignerLeft
R_Leg01 R_Hip
R_Leg02 R_Leg01
R_Leg03 R_Leg02
R_Foot R_Leg03
planeAlignerRight R_Foot
R_Toe1_01 R_Foot
R_Toe2_01 R_Foot
R_Toe3_01 R_Foot
planeLockWeightRight planeAlignerRight
R_Toe1_02 R_Toe1_01
R_Toe1_03 R_Toe1_02
R_Toe2_02 R_Toe2_01
R_Toe2_03 R_Toe2_02
R_Toe3_02 R_Toe3_01
R_Toe3_03 R_Toe3_02
Rear_Leg02 Rear_Leg01
Rear_Leg03 Rear_Leg02
Rear_Leg04 Rear_Leg03
Rear_Foot Rear_Leg04
planeAlignerCenter Rear_Foot
Rear_Toe1_01 Rear_Foot
Rear_Toe2_01 Rear_Foot
Rear_Toe3_01 Rear_Foot
planeLockWeightCenter planeAlignerCenter
Rear_Toe1_02 Rear_Toe1_01
Rear_Toe1_03 Rear_Toe1_02
Rear_Toe2_02 Rear_Toe2_01
Rear_Toe2_03 Rear_Toe2_02
Rear_Toe3_02 Rear_Toe3_01
Rear_Toe3_03 Rear_Toe3_02
Back_Bone Spine1
Head Spine1
Motor_Bone Back_Bone
Ping_Mechanism Back_Bone
BN_LookIK Head
bottomMouth Head
L_Mouth01 Head
L_mouthFront Head
mouthGun Head
R_Mouth01 Head
R_mouthFront Head
TopMouth Head
weapon_bone Head
[BasePosition]
#SegmentName Tx, Ty, Tz, Rx, Ry, Rz, BoneLength
Pinger_Root 0.000000 0.000000 0.000000 -90.000000 0.000000 0.000000 10.000000 
Pelvis 0.000000 0.000000 0.000000 0.000000 0.000000 0.000000 10.000000 
L_Hip 0.000000 0.000000 0.000000 0.000000 0.000000 0.000000 10.000000 
R_Hip 0.000000 0.000000 0.000000 0.000000 0.000000 0.000000 10.000000 
Rear_Leg01 0.000000 0.000000 0.000000 0.000000 0.000000 0.000000 10.000000 
Spine1 0.000000 0.000000 0.000000 0.000000 0.000000 0.000000 10.000000 
L_Leg01 0.000000 0.000000 0.000000 0.000000 0.000000 0.000000 10.000000 
L_Leg02 0.000000 0.000000 0.000000 0.000000 0.000000 0.000000 10.000000 
L_Leg03 0.000000 0.000000 0.000000 0.000000 0.000000 0.000000 10.000000 
L_Foot 0.000000 0.000000 0.000000 0.000000 0.000000 0.000000 10.000000 
L_Toe1_01 0.000000 0.000000 0.000000 0.000000 0.000000 0.000000 10.000000 
L_Toe2_01 0.000000 0.000000 0.000000 0.000000 0.000000 0.000000 10.000000 
L_Toe3_01 0.000000 0.000000 0.000000 0.000000 0.000000 0.000000 10.000000 
planeAlignerLeft 0.000000 0.000000 0.000000 0.000000 0.000000 0.000000 10.000000 
L_Toe1_02 0.000000 0.000000 0.000000 0.000000 0.000000 0.000000 10.000000 
L_Toe1_03 0.000000 0.000000 0.000000 0.000000 0.000000 0.000000 10.000000 
L_Toe2_02 0.000000 0.000000 0.000000 0.000000 0.000000 0.000000 10.000000 
L_Toe2_03 0.000000 0.000000 0.000000 0.000000 0.000000 0.000000 10.000000 
L_Toe3_02 0.000000 0.000000 0.000000 0.000000 0.000000 0.000000 10.000000 
L_Toe3_03 0.000000 0.000000 0.000000 0.000000 0.000000 0.000000 10.000000 
planeLockWeightLeft 0.000000 0.000000 0.000000 0.000000 0.000000 0.000000 10.000000 
R_Leg01 0.000000 0.000000 0.000000 0.000000 0.000000 0.000000 10.000000 
R_Leg02 0.000000 0.000000 0.000000 0.000000 0.000000 0.000000 10.000000 
R_Leg03 0.000000 0.000000 0.000000 0.000000 0.000000 0.000000 10.000000 
R_Foot 0.000000 0.000000 0.000000 0.000000 0.000000 0.000000 10.000000 
planeAlignerRight 0.000000 0.000000 0.000000 0.000000 0.000000 0.000000 10.000000 
R_Toe1_01 0.000000 0.000000 0.000000 0.000000 0.000000 0.000000 10.000000 
R_Toe2_01 0.000000 0.000000 0.000000 0.000000 0.000000 0.000000 10.000000 
R_Toe3_01 0.000000 0.000000 0.000000 0.000000 0.000000 0.000000 10.000000 
planeLockWeightRight 0.000000 0.000000 0.000000 0.000000 0.000000 0.000000 10.000000 
R_Toe1_02 0.000000 0.000000 0.000000 0.000000 0.000000 0.000000 10.000000 
R_Toe1_03 0.000000 0.000000 0.000000 0.000000 0.000000 0.000000 10.000000 
R_Toe2_02 0.000000 0.000000 0.000000 0.000000 0.000000 0.000000 10.000000 
R_Toe2_03 0.000000 0.000000 0.000000 0.000000 0.000000 0.000000 10.000000 
R_Toe3_02 0.000000 0.000000 0.000000 0.000000 0.000000 0.000000 10.000000 
R_Toe3_03 0.000000 0.000000 0.000000 0.000000 0.000000 0.000000 10.000000 
Rear_Leg02 0.000000 0.000000 0.000000 0.000000 0.000000 0.000000 10.000000 
Rear_Leg03 0.000000 0.000000 0.000000 0.000000 0.000000 0.000000 10.000000 
Rear_Leg04 0.000000 0.000000 0.000000 0.000000 0.000000 0.000000 10.000000 
Rear_Foot 0.000000 0.000000 0.000000 0.000000 0.000000 0.000000 10.000000 
planeAlignerCenter 0.000000 0.000000 0.000000 0.000000 0.000000 0.000000 10.000000 
Rear_Toe1_01 0.000000 0.000000 0.000000 0.000000 0.000000 0.000000 10.000000 
Rear_Toe2_01 0.000000 0.000000 0.000000 0.000000 0.000000 0.000000 10.000000 
Rear_Toe3_01 0.000000 0.000000 0.000000 0.000000 0.000000 0.000000 10.000000 
planeLockWeightCenter 0.000000 0.000000 0.000000 0.000000 0.000000 0.000000 10.000000 
Rear_Toe1_02 0.000000 0.000000 0.000000 0.000000 0.000000 0.000000 10.000000 
Rear_Toe1_03 0.000000 0.000000 0.000000 0.000000 0.000000 0.000000 10.000000 
Rear_Toe2_02 0.000000 0.000000 0.000000 0.000000 0.000000 0.000000 10.000000 
Rear_Toe2_03 0.000000 0.000000 0.000000 0.000000 0.000000 0.000000 10.000000 
Rear_Toe3_02 0.000000 0.000000 0.000000 0.000000 0.000000 0.000000 10.000000 
Rear_Toe3_03 0.000000 0.000000 0.000000 0.000000 0.000000 0.000000 10.000000 
Back_Bone 0.000000 0.000000 0.000000 0.000000 0.000000 0.000000 10.000000 
Head 0.000000 0.000000 0.000000 0.000000 0.000000 0.000000 10.000000 
Motor_Bone 0.000000 0.000000 0.000000 0.000000 0.000000 0.000000 10.000000 
Ping_Mechanism 0.000000 0.000000 0.000000 0.000000 0.000000 0.000000 10.000000 
BN_LookIK 0.000000 0.000000 0.000000 0.000000 0.000000 0.000000 10.000000 
bottomMouth 0.000000 0.000000 0.000000 0.000000 0.000000 0.000000 10.000000 
L_Mouth01 0.000000 0.000000 0.000000 0.000000 0.000000 0.000000 10.000000 
L_mouthFront 0.000000 0.000000 0.000000 0.000000 0.000000 0.000000 10.000000 
mouthGun 0.000000 0.000000 0.000000 0.000000 0.000000 0.000000 10.000000 
R_Mouth01 0.000000 0.000000 0.000000 0.000000 0.000000 0.000000 10.000000 
R_mouthFront 0.000000 0.000000 0.000000 0.000000 0.000000 0.000000 10.000000 
TopMouth 0.000000 0.000000 0.000000 0.000000 0.000000 0.000000 10.000000 
weapon_bone 0.000000 0.000000 0.000000 0.000000 0.000000 0.000000 10.000000 
#Beginning of Data. Separated by tabs
#Fr	Tx	Ty	Tz	Rx	Ry	Rz	SF
[Pinger_Root]
76 0.000000 0.000000 0.000000 -0.000075 -0.000000 -0.000020 0.000000
77 0.000000 0.000000 0.000000 -0.000075 -0.000000 -0.000020 0.000000
78 0.000000 0.000000 0.000000 -0.000075 -0.000000 -0.000020 0.000000
[Pelvis]
76 742.165894 928.976685 3930.320801 -4.404546 -85.119499 -3.706547 4106.242676
77 738.914673 929.515137 3961.377441 -6.695487 -83.771271 -1.479951 4135.517578
78 735.214844 929.964600 3995.116699 -8.194274 -82.454781 -0.013970 4167.293457
[L_Hip]
76 5.766392 125.831482 872.656799 160.158691 -45.484905 122.312202 881.701050
77 5.766392 125.831482 872.656799 160.158691 -45.484905 122.312202 881.701050
78 5.766392 125.831482 872.656799 160.158691 -45.484905 122.312202 881.701050
[R_Hip]
76 5.765438 125.836372 -872.654907 11.356708 58.800533 93.183365 881.699829
77 5.765438 125.836372 -872.654907 14.463764 58.366016 96.823250 881.699829
78 5.765438 125.836372 -872.654907 17.472630 57.830563 100.366524 881.699829
[Rear_Leg01]
76 -192.298416 -925.602966 -0.001907 169.134674 -2.188615 -150.087601 945.367432
77 -192.298416 -925.602966 -0.001907 169.809647 -0.833132 -150.807632 945.367432
78 -192.298416 -925.602966 -0.001907 170.467209 0.530039 -151.511276 945.367432
[Spine1]
76 290.604584 5.007505 0.000477 5.527403 -7.806382 22.768339 290.647736
77 290.604584 5.007505 0.000477 5.078428 -8.901842 22.504206 290.647736
78 290.604584 5.007505 0.000477 4.633259 -9.999049 22.248018 290.647736
[L_Leg01]
76 761.932007 -0.002384 -0.069261 15.369619 -22.846380 11.026786 761.932068
77 761.932007 -0.002384 -0.069261 14.199781 -23.070560 9.333979 761.932068
78 761.932007 -0.002384 -0.069261 13.036082 -23.326307 7.644227 761.932068
[L_Leg02]
76 1441.140503 -0.000954 -0.000715 3.359231 -0.867079 -150.299088 1441.140503
77 1441.140503 -0.000954 -0.000715 3.054485 -0.824454 -148.243362 1441.140503
78 1441.140503 -0.000954 -0.000715 2.751370 -0.770908 -146.187256 1441.140503
[L_Leg03]
76 1686.963989 -0.000715 -0.000954 0.017779 -0.005996 105.789009 1686.963989
77 1686.963989 -0.000715 -0.000954 0.020594 -0.006239 105.002998 1686.963989
78 1686.963989 -0.000715 -0.000954 0.023411 -0.006444 104.217026 1686.963989
[L_Foot]
76 3041.570068 -30.715107 11.297464 -0.276486 12.326917 62.729504 3041.746094
77 3041.570068 -30.715107 11.297464 0.024529 12.487025 62.896187 3041.746094
78 3041.570068 -30.715107 11.297464 0.326189 12.646265 63.063801 3041.746094
[L_Toe1_01]
76 -188.216690 -224.732346 -21.137953 94.249413 -5.771139 -178.854965 293.899567
77 -188.216690 -224.732346 -21.137953 94.235275 -5.810467 -178.623016 293.899567
78 -188.216690 -224.732346 -21.137953 94.212868 -5.867242 -178.279449 293.899567
[L_Toe2_01]
76 200.746536 -219.926590 148.838394 -93.074860 -26.513357 -45.290974 332.896027
77 200.746536 -219.926590 148.838394 -92.969612 -26.511953 -45.545853 332.896027
78 200.746536 -219.926590 148.838394 -92.810059 -26.509670 -45.931034 332.896027
[L_Toe3_01]
76 188.832520 -219.859131 -191.078659 -99.074791 16.765017 -60.343655 347.140900
77 188.832520 -219.859131 -191.078659 -99.118454 16.622969 -60.706600 347.140900
78 188.832520 -219.859131 -191.078659 -99.161148 16.480646 -61.069172 347.140900
[planeAlignerLeft]
76 0.812531 -811.448792 -0.314951 0.000000 -90.000000 -90.001900 811.449280
77 0.812531 -811.448792 -0.314951 0.000000 -90.000000 -90.001900 811.449280
78 0.812531 -811.448792 -0.314951 0.000000 -90.000000 -90.001900 811.449280
[L_Toe1_02]
76 413.761139 0.000477 0.000000 0.001386 -25.663837 0.001386 413.761139
77 413.761139 0.000477 0.000000 0.001386 -25.680075 0.001386 413.761139
78 413.761139 0.000477 0.000000 0.001386 -25.696312 0.001386 413.761139
[L_Toe1_03]
76 464.317322 0.000358 -0.000089 0.004671 60.896198 0.004671 464.317322
77 464.317322 0.000358 -0.000089 0.004633 60.651443 0.004633 464.317322
78 464.317322 0.000358 -0.000089 0.004595 60.406651 0.004595 464.317322
[L_Toe2_02]
76 342.235809 -0.000477 0.000238 0.001184 -74.985123 0.001184 342.235809
77 342.235809 -0.000477 0.000238 0.001184 -74.914650 0.001184 342.235809
78 342.235809 -0.000477 0.000238 0.001184 -74.844131 0.001184 342.235809
[L_Toe2_03]
76 420.210846 -0.000715 0.000000 -179.979156 87.084763 -179.975662 420.210846
77 420.210846 -0.000715 0.000000 -179.977112 87.326508 -179.973618 420.210846
78 420.210846 -0.000715 0.000000 -179.974670 87.568039 -179.971176 420.210846
[L_Toe3_02]
76 329.270111 0.000954 0.000000 0.001176 -82.234383 0.001176 329.270111
77 329.270111 0.000954 0.000000 0.001176 -82.176575 0.001176 329.270111
78 329.270111 0.000954 0.000000 0.001176 -82.118683 0.001176 329.270111
[L_Toe3_03]
76 439.137451 -0.001907 0.000954 -179.998413 70.335815 -179.994858 439.137451
77 439.137451 -0.001907 0.000954 -179.998352 70.697243 -179.994797 439.137451
78 439.137451 -0.001907 0.000954 -179.998291 71.058640 -179.994736 439.137451
[planeLockWeightLeft]
76 -0.000954 0.000238 -0.000305 -0.011826 -0.004376 0.005620 0.001029
77 -0.000954 0.000238 -0.000305 -0.011826 -0.004376 0.005620 0.001029
78 -0.000954 0.000238 -0.000305 -0.011826 -0.004376 0.005620 0.001029
[R_Leg01]
76 761.455627 -0.001907 -0.000358 130.807846 -7.066231 59.037773 761.455688
77 761.455627 -0.001907 -0.000358 129.320770 -7.439786 55.239635 761.455688
78 761.455627 -0.001907 -0.000358 127.860474 -7.910130 51.448814 761.455688
[R_Leg02]
76 1441.140625 0.000000 -0.000238 -2.582821 -1.279703 -140.945801 1441.140625
77 1441.140625 0.000000 -0.000238 -2.650802 -1.385380 -143.347336 1441.140625
78 1441.140625 0.000000 -0.000238 -2.711363 -1.479943 -145.473740 1441.140625
[R_Leg03]
76 1686.963989 0.000954 0.001431 0.125757 -0.081545 145.212494 1686.963989
77 1686.963989 0.000954 0.001431 0.129357 -0.084535 145.942825 1686.963989
78 1686.963989 0.000954 0.001431 0.132920 -0.087571 146.673172 1686.963989
[R_Foot]
76 3041.560059 -30.531288 -11.204481 -13.673404 -12.399776 67.335922 3041.734131
77 3041.560059 -30.531288 -11.204481 -13.420207 -13.386581 68.083221 3041.734131
78 3041.560059 -30.531288 -11.204481 -13.020344 -14.423184 68.578560 3041.734131
[planeAlignerRight]
76 -0.635147 -812.270569 -0.364304 0.000000 -89.960434 -90.005180 812.270874
77 -0.635147 -812.270569 -0.364304 0.000000 -89.960434 -90.005180 812.270874
78 -0.635147 -812.270569 -0.364304 0.000000 -89.960434 -90.005180 812.270874
[R_Toe1_01]
76 -188.383347 -224.864899 21.052242 77.189209 -3.257140 172.280655 294.101532
77 -188.383347 -224.864899 21.052242 77.189186 -3.257026 172.281082 294.101532
78 -188.383347 -224.864899 21.052242 77.189133 -3.256910 172.281509 294.101532
[R_Toe2_01]
76 200.637817 -220.002121 -148.787384 -84.892136 32.506779 -46.564308 332.857574
77 200.637817 -220.002121 -148.787384 -84.892426 32.506771 -46.564896 332.857574
78 200.637817 -220.002121 -148.787384 -84.892754 32.506763 -46.565479 332.857574
[R_Toe3_01]
76 188.606735 -220.092957 191.126343 -74.389694 -14.499940 -66.131378 347.192566
77 188.606735 -220.092957 191.126343 -74.389709 -14.499727 -66.131866 347.192566
78 188.606735 -220.092957 191.126343 -74.389725 -14.499503 -66.132347 347.192566
[planeLockWeightRight]
76 -0.000477 0.000000 0.000000 -0.011823 -0.004379 -0.000027 0.000477
77 -0.000477 0.000000 0.000000 -0.011823 -0.004379 -0.000027 0.000477
78 -0.000477 0.000000 0.000000 -0.011823 -0.004379 -0.000027 0.000477
[R_Toe1_02]
76 413.762085 0.000477 -0.000119 0.001470 -15.950562 0.001470 413.762085
77 413.762085 0.000477 -0.000119 0.001470 -15.951193 0.001470 413.762085
78 413.762085 0.000477 -0.000119 0.001470 -15.951834 0.001470 413.762085
[R_Toe1_03]
76 464.317810 0.000000 0.001088 -179.996872 76.476234 -179.993347 464.317810
77 464.317810 0.000000 0.001088 -179.996872 76.476700 -179.993347 464.317810
78 464.317810 0.000000 0.001088 -179.996872 76.477112 -179.993347 464.317810
[R_Toe2_02]
76 342.234741 -0.000954 0.000238 -0.002332 -79.733238 -0.002332 342.234741
77 342.234741 -0.000954 0.000238 -0.002332 -79.732697 -0.002332 342.234741
78 342.234741 -0.000954 0.000238 -0.002332 -79.732162 -0.002332 342.234741
[R_Toe2_03]
76 420.210846 0.000715 -0.000268 -179.995560 64.996582 -179.999130 420.210846
77 420.210846 0.000715 -0.000268 -179.995560 64.997017 -179.999130 420.210846
78 420.210846 0.000715 -0.000268 -179.995560 64.997444 -179.999130 420.210846
[R_Toe3_02]
76 329.270355 -0.000477 -0.000954 0.001175 -83.698669 0.001175 329.270355
77 329.270355 -0.000477 -0.000954 0.001175 -83.698273 0.001175 329.270355
78 329.270355 -0.000477 -0.000954 0.001175 -83.697769 0.001175 329.270355
[R_Toe3_03]
76 439.137939 0.000238 0.001431 -179.994354 60.963367 -179.987122 439.137939
77 439.137939 0.000238 0.001431 -179.994354 60.963913 -179.987122 439.137939
78 439.137939 0.000238 0.001431 -179.994354 60.964439 -179.987122 439.137939
[Rear_Leg02]
76 1162.777710 -0.029802 0.005960 1.439812 -2.602497 -140.977829 1162.777710
77 1162.777710 -0.029802 0.005960 1.387543 -2.632479 -139.785812 1162.777710
78 1162.777710 -0.029802 0.005960 1.324620 -2.664798 -138.364487 1162.777710
[Rear_Leg03]
76 607.192505 -0.013351 -0.073195 0.010402 -0.005287 70.239090 607.192505
77 607.192505 -0.013351 -0.073195 0.010419 -0.005254 69.877098 607.192505
78 607.192505 -0.013351 -0.073195 0.010435 -0.005221 69.515129 607.192505
[Rear_Leg04]
76 995.874512 -0.020504 -0.011921 -0.040816 -0.017410 71.160774 995.874573
77 995.874512 -0.020504 -0.011921 -0.040667 -0.017766 70.163628 995.874573
78 995.874512 -0.020504 -0.011921 -0.040512 -0.018120 69.166344 995.874573
[Rear_Foot]
76 3096.176270 -0.067472 -0.041425 -170.478867 75.573135 25.123344 3096.176270
77 3096.176270 -0.067472 -0.041425 -170.276047 75.820259 25.064545 3096.176270
78 3096.176270 -0.067472 -0.041425 -170.070724 76.067406 25.008360 3096.176270
[planeAlignerCenter]
76 0.350077 0.966311 -838.790894 0.000009 0.000003 -179.999985 838.791565
77 0.350077 0.966311 -838.790894 0.000009 0.000003 -179.999985 838.791565
78 0.350077 0.966311 -838.790894 0.000009 0.000003 -179.999985 838.791565
[Rear_Toe1_01]
76 0.653352 83.966492 -371.173737 0.291019 41.137726 90.406410 380.553192
77 0.653352 83.966492 -371.173737 0.291041 41.137753 90.406410 380.553192
78 0.653352 83.966492 -371.173737 0.291064 41.137768 90.406425 380.553192
[Rear_Toe2_01]
76 178.200760 -294.826019 -362.060547 -7.261275 33.853519 -66.229301 499.765686
77 178.200760 -294.826019 -362.060547 -7.261294 33.853539 -66.229309 499.765686
78 178.200760 -294.826019 -362.060547 -7.261316 33.853565 -66.229324 499.765686
[Rear_Toe3_01]
76 -153.359680 -308.780914 -362.060852 3.322300 32.989574 -112.582558 499.952881
77 -153.359680 -308.780914 -362.060852 3.322300 32.989574 -112.582558 499.952881
78 -153.359680 -308.780914 -362.060852 3.322300 32.989574 -112.582558 499.952881
[planeLockWeightCenter]
76 -0.000062 0.000238 0.000000 -0.011814 -0.004373 -0.000015 0.000246
77 -0.000062 0.000238 0.000000 -0.011814 -0.004373 -0.000015 0.000246
78 -0.000062 0.000238 0.000000 -0.011814 -0.004373 -0.000015 0.000246
[Rear_Toe1_02]
76 379.707825 0.194073 0.000477 -0.000261 -31.944153 0.006945 379.707855
77 379.707825 0.194073 0.000477 -0.000261 -31.944164 0.006945 379.707855
78 379.707825 0.194073 0.000477 -0.000261 -31.944153 0.006945 379.707855
[Rear_Toe1_03]
76 500.129700 0.165701 0.000119 0.000045 53.309292 0.007413 500.129761
77 500.129700 0.165701 0.000119 0.000045 53.309292 0.007413 500.129761
78 500.129700 0.165701 0.000119 0.000045 53.309299 0.007413 500.129761
[Rear_Toe2_02]
76 340.494507 0.000238 -0.000954 0.001191 -70.483078 0.001191 340.494507
77 340.494507 0.000238 -0.000954 0.001191 -70.483078 0.001191 340.494507
78 340.494507 0.000238 -0.000954 0.001191 -70.483078 0.001191 340.494507
[Rear_Toe2_03]
76 433.103577 0.000000 0.000238 0.007024 70.763443 0.007024 433.103546
77 433.103577 0.000000 0.000238 0.007024 70.763435 0.007024 433.103546
78 433.103577 0.000000 0.000238 0.007024 70.763382 0.007024 433.103546
[Rear_Toe3_02]
76 340.494141 -0.000358 -0.000477 0.004208 -67.923424 -0.003277 340.494171
77 340.494141 -0.000358 -0.000477 0.004248 -67.923447 -0.003336 340.494171
78 340.494141 -0.000358 -0.000477 0.004288 -67.923401 -0.003396 340.494171
[Rear_Toe3_03]
76 433.103577 0.001431 -0.000238 0.005868 66.926132 0.005868 433.103546
77 433.103577 0.001431 -0.000238 0.005868 66.926117 0.005868 433.103546
78 433.103577 0.001431 -0.000238 0.005868 66.926086 0.005868 433.103546
[Back_Bone]
76 1312.175781 -701.934692 0.000954 1.465445 -0.084734 -85.968315 1488.125488
77 1312.175781 -701.934692 0.000954 1.465336 -0.095890 -85.448639 1488.125488
78 1312.175781 -701.934692 0.000954 1.465126 -0.107045 -84.928978 1488.125488
[Head]
76 1406.159424 809.709290 0.001431 3.026496 -2.066412 19.082830 1622.625488
77 1406.159424 809.709290 0.001431 3.197194 -2.236637 19.049219 1622.625488
78 1406.159424 809.709290 0.001431 3.368008 -2.406758 19.015091 1622.625488
[Motor_Bone]
76 1158.364380 -417.834747 0.000477 -0.000105 0.000046 -105.985291 1231.419434
77 1158.364380 -417.834747 0.000477 -0.000105 0.000046 -105.985291 1231.419434
78 1158.364380 -417.834747 0.000477 -0.000105 0.000046 -105.985291 1231.419434
[Ping_Mechanism]
76 1214.813599 -430.300873 25.363459 0.000103 -0.000053 82.120995 1289.020630
77 1215.788208 -430.032532 32.162369 0.000103 -0.000053 82.120995 1290.001343
78 1216.762939 -429.764191 38.961224 0.000103 -0.000053 82.120995 1291.017822
[BN_LookIK]
76 193.241119 1380.371704 -0.002861 0.000000 89.965736 -31.038179 1393.832153
77 193.241119 1380.371704 -0.002861 0.000000 89.965736 -31.038179 1393.832153
78 193.241119 1380.371704 -0.002861 0.000000 89.965736 -31.038179 1393.832153
[bottomMouth]
76 -435.092926 615.759399 -0.000954 -0.000022 0.000016 73.527184 753.966492
77 -435.092926 615.759399 -0.000954 -0.000022 0.000016 73.527184 753.966492
78 -435.092926 615.759399 -0.000954 -0.000022 0.000016 73.527184 753.966492
[L_Mouth01]
76 554.440979 7.658243 838.222046 150.204178 23.759130 109.605339 1005.027161
77 554.440979 7.658243 838.222046 150.204178 23.759130 109.605339 1005.027161
78 554.440979 7.658243 838.222046 150.204178 23.759130 109.605339 1005.027161
[L_mouthFront]
76 551.629089 934.514771 339.150421 0.000081 2.804060 79.119301 1136.941284
77 551.629089 934.514771 339.150421 0.000081 2.804060 79.119301 1136.941284
78 551.629089 934.514771 339.150421 0.000081 2.804060 79.119301 1136.941284
[mouthGun]
76 55.332661 1627.420898 0.000000 0.000023 0.000009 -11.038128 1628.361328
77 55.332661 1627.420898 0.000000 0.000023 0.000009 -11.038128 1628.361328
78 55.332661 1627.420898 0.000000 0.000023 0.000009 -11.038128 1628.361328
[R_Mouth01]
76 554.442383 7.659197 -838.223938 29.795891 -23.759109 109.605331 1005.029541
77 554.442383 7.659197 -838.223938 29.795891 -23.759109 109.605331 1005.029541
78 554.442383 7.659197 -838.223938 29.795891 -23.759109 109.605331 1005.029541
[R_mouthFront]
76 551.629089 934.514282 -339.151367 0.000029 -2.803930 79.119133 1136.941162
77 551.629089 934.514282 -339.151367 0.000029 -2.803930 79.119133 1136.941162
78 551.629089 934.514282 -339.151367 0.000029 -2.803930 79.119133 1136.941162
[TopMouth]
76 461.269867 -56.106091 -0.008583 -0.000059 -0.000268 92.025169 464.669525
77 461.269867 -56.106091 -0.008583 -0.000059 -0.000268 92.025169 464.669525
78 461.269867 -56.106091 -0.008583 -0.000059 -0.000268 92.025169 464.669525
[weapon_bone]
76 -987.239868 1448.372803 0.001431 0.000000 89.965736 -31.038221 1752.833740
77 -987.239868 1448.372803 0.001431 0.000000 89.965736 -31.038221 1752.833740
78 -987.239868 1448.372803 0.001431 0.000000 89.965736 -31.038221 1752.833740
